<?xml version="1.0" encoding="UTF-8"?>
<svg version="1.1" xmlns="http://www.w3.org/2000/svg" width="4000" height="1737">
<path d="M0 0 C68.97 0 137.94 0 209 0 C209 31.35 209 62.7 209 95 C206 98 206 98 203.5 98.0625 C199.87862162 96.52341419 199.50846953 94.60267457 198 91 C197.16853723 87.9658082 196.57420049 84.9045336 196 81.8125 C195.83048828 80.94044922 195.66097656 80.06839844 195.48632812 79.16992188 C194.48760721 73.93511677 193.63060185 68.69063943 192.85620117 63.41845703 C190.75926326 49.18112533 187.27205663 34.9720109 176.37109375 24.7265625 C160.49198128 13.16384799 143.71592762 11.82149698 124 11 C124.33 28.49 124.66 45.98 125 64 C129.95 65.32 134.9 66.64 140 68 C142.88795502 69.15965176 145.47558915 70.24795322 148.1875 71.6875 C149.17991699 72.20231934 149.17991699 72.20231934 150.19238281 72.72753906 C175.73063776 86.37835907 191.94243056 109.63336522 200.3125 136.875 C207.66993719 162.35691505 208.58836253 189.20771497 202 215 C203.13727036 215.00546844 203.13727036 215.00546844 204.29751587 215.01104736 C211.50434282 215.0491912 218.71066776 215.1063365 225.91716957 215.18390274 C229.62057685 215.22311851 233.32375557 215.25543177 237.02734375 215.27099609 C240.6132842 215.28633627 244.19859513 215.32107909 247.78425217 215.36830902 C249.79223728 215.3899846 251.80040098 215.39245869 253.8085022 215.39434814 C272.2958334 215.68361204 289.21656154 222.12119422 302.375 235.24609375 C314.13751982 247.58623731 319.42155331 261.31420444 319.3125 278.3125 C319.30686035 279.23603271 319.3012207 280.15956543 319.29541016 281.11108398 C319.01080068 297.15206875 313.5041407 310.74703514 302.109375 322.17578125 C291.41137316 332.24870827 273.82657506 342 259 342 C259 342.66 259 343.32 259 344 C260.051875 344.061875 261.10375 344.12375 262.1875 344.1875 C275.54509603 345.91334869 288.59139129 353.49959454 297 364 C306.69003684 378.20091606 308.94701513 395.11947637 311.0625 411.75 C313.35676089 429.6487869 315.82120118 446.08829293 328.99609375 459.52734375 C334.35383178 463.46470678 339.11765321 464.37207647 345.68359375 464.29296875 C346.38396255 464.28872391 347.08433136 464.28447906 347.80592346 464.28010559 C350.01686 464.26347156 352.22684457 464.2258518 354.4375 464.1875 C355.94725235 464.17243326 357.45701916 464.15874836 358.96679688 464.14648438 C362.64483434 464.11361921 366.32232407 464.06194582 370 464 C370 467.63 370 471.26 370 475 C305.48167924 476.05479543 305.48167924 476.05479543 289 463 C288.17242188 462.37996094 287.34484375 461.75992187 286.4921875 461.12109375 C269.09330365 446.31295279 265.89774242 421.55311786 263.21826172 400.26123047 C260.26383144 375.4423947 260.26383144 375.4423947 247 355 C242.92604377 352.04906074 239.9987099 351.61260099 235.0065918 351.56762695 C234.32311172 351.5574353 233.63963165 351.54724365 232.93544006 351.53674316 C230.68994869 351.50669508 228.44488447 351.49736021 226.19921875 351.48828125 C224.6369333 351.47142841 223.07466137 351.45327735 221.5124054 351.43388367 C217.41075868 351.38644292 213.30916676 351.35659544 209.20733643 351.33044434 C205.01767154 351.30060877 200.82819529 351.25408876 196.63867188 351.20898438 C188.42585839 351.12301858 180.21306436 351.05718656 172 351 C172 357.6 172 364.2 172 371 C189.16 371 206.32 371 224 371 C224 374.63 224 378.26 224 382 C221.958125 381.9071875 221.958125 381.9071875 219.875 381.8125 C203.04778671 381.88380175 189.08742343 388.56863738 177 400 C173.57493323 403.68072817 172.49788995 405.86712836 172.45410156 410.8918457 C172.43438293 412.05267166 172.41466431 413.21349762 172.39434814 414.40950012 C172.39311951 415.65237289 172.39189087 416.89524567 172.390625 418.17578125 C172.37408875 419.45607712 172.35755249 420.73637299 172.34051514 422.0554657 C172.29693132 425.4469595 172.27686299 428.8381951 172.26177979 432.22991943 C172.24217586 435.69575042 172.20042464 439.16131077 172.16015625 442.62695312 C172.08286809 449.41814131 172.04240933 456.20814597 172 463 C184.87 463 197.74 463 211 463 C211 466.63 211 470.26 211 474 C209.93004288 473.98143951 208.86008575 473.96287903 207.75770569 473.9437561 C197.65042144 473.7776301 187.54479518 473.68579767 177.43613529 473.66578102 C172.23929396 473.65312707 167.04535075 473.61475683 161.84936523 473.51660156 C156.82979729 473.42274178 151.81408096 473.39776089 146.79372978 473.41953659 C144.88348533 473.41591024 142.97311952 473.38789918 141.0636158 473.33458328 C130.16237698 472.7892912 130.16237698 472.7892912 120.80686951 477.52157593 C113.31623726 486.50324728 113.74431046 497.89315062 113.90234375 508.9609375 C113.89667816 510.84666488 113.88705073 512.73238408 113.87367249 514.61807251 C113.84925512 519.53404604 113.87794404 524.44826485 113.91845703 529.36407471 C113.95591911 535.2872851 113.92608022 541.21050835 113.90778351 547.13375854 C113.88752153 556.09021718 113.95167495 565.04246905 114 574 C128.52 574 143.04 574 158 574 C158 577.3 158 580.6 158 584 C117.41 584 76.82 584 35 584 C35 580.7 35 577.4 35 574 C47.87 574 60.74 574 74 574 C74.02554959 558.22335771 74.02554959 558.22335771 73.98632812 542.44726562 C73.95596073 536.00836616 73.9330222 529.57006407 73.95532227 523.13110352 C73.97283316 517.93707973 73.95619397 512.74416489 73.91632271 507.5502758 C73.90706075 505.57327115 73.90990316 503.59616991 73.92530632 501.61920357 C74.31703398 489.48942602 74.31703398 489.48942602 70.41601562 478.28320312 C66.04876494 473.91685031 60.73288309 473.83554927 54.83924866 473.8278656 C53.37328521 473.85172926 51.9073375 473.87657804 50.44140625 473.90234375 C48.92681452 473.89668504 47.41223289 473.8870667 45.89768982 473.87367249 C41.93005101 473.84913779 37.96456953 473.87806581 33.99713135 473.91845703 C29.94137353 473.95017997 25.88588533 473.93089698 21.83007812 473.91601562 C13.88610525 473.8943305 5.94368438 473.92917032 -2 474 C-2 470.37 -2 466.74 -2 463 C10.87 463 23.74 463 37 463 C37.82849371 437.53142231 37.82849371 437.53142231 24.83154297 417.07421875 C22.31377139 414.22284747 20.13991357 411.17494974 17.94897461 408.0690918 C16.86557938 406.53378353 15.7636213 405.01139338 14.64282227 403.50317383 C12.0679194 400.03472546 9.74480762 396.65775348 7.8046875 392.79296875 C4.81707037 387.09706981 4.81707037 387.09706981 0 383 C-7.84604645 381.06923958 -15.99797822 381.55331617 -24 382 C-24 378.7 -24 375.4 -24 372 C-3.87 372 16.26 372 37 372 C37 365.07 37 358.14 37 351 C28.01088193 350.99512218 19.02279002 351.01568115 10.0338974 351.0802784 C5.85936157 351.1092768 1.6853849 351.12738866 -2.48925781 351.12011719 C-6.522696 351.11350062 -10.55503155 351.13613894 -14.58824158 351.17855453 C-16.12226941 351.18964474 -17.65640962 351.19042283 -19.19044495 351.18042374 C-30.27753344 351.05175358 -30.27753344 351.05175358 -39.62506104 356.48957825 C-52.84905833 371.01663267 -53.25578975 393.83027687 -55.70703125 412.30859375 C-57.79917408 427.55683062 -61.68543693 441.48088542 -71 454 C-71.45890625 454.65226562 -71.9178125 455.30453125 -72.390625 455.9765625 C-80.21880959 466.18919412 -92.38377429 470.57197899 -104.69677734 472.2800293 C-105.60121582 472.39386963 -106.5056543 472.50770996 -107.4375 472.625 C-108.40123535 472.74979736 -109.3649707 472.87459473 -110.35791016 473.00317383 C-127.23017852 475.10141681 -144.01654711 475.12931563 -161 475 C-161 471.37 -161 467.74 -161 464 C-160.03175293 464.01571045 -159.06350586 464.0314209 -158.06591797 464.04760742 C-154.45418706 464.10213985 -150.84249215 464.13643419 -147.23046875 464.16479492 C-145.67083606 464.17982869 -144.11124528 464.20026135 -142.55175781 464.22631836 C-140.30262884 464.26294211 -138.05406153 464.27978021 -135.8046875 464.29296875 C-135.1138205 464.30845261 -134.42295349 464.32393646 -133.71115112 464.33988953 C-127.26130435 464.34210313 -122.67194858 462.08255562 -118.0625 457.6875 C-105.09929203 444.1531162 -103.53242046 425.08612716 -101.27319336 407.42602539 C-98.75078365 387.88846908 -95.15833383 369.95451154 -80 356 C-71.15716913 349.37876704 -60.65950005 345.52160216 -50 343 C-51.0415625 342.731875 -52.083125 342.46375 -53.15625 342.1875 C-72.73120416 336.928832 -90.44370243 328.45290498 -102 311 C-110.96521805 295.2933125 -112.47735407 276.90599097 -107.83447266 259.61157227 C-103.30015882 244.34020158 -92.87178057 232.42704977 -79.2578125 224.37890625 C-66.74357174 217.7234546 -54.70841928 215.38593382 -40.6328125 215.609375 C-39.21793428 215.61686179 -37.8030455 215.62254314 -36.38815308 215.62652588 C-32.71537184 215.64159114 -29.04325238 215.6806996 -25.37072754 215.7253418 C-21.60271144 215.76671481 -17.8345854 215.78462532 -14.06640625 215.8046875 C-6.71064012 215.84721941 0.64458624 215.91522854 8 216 C7.79191208 215.24749466 7.58382416 214.49498932 7.36943054 213.71968079 C7.09758438 212.73106552 6.82573822 211.74245026 6.5456543 210.72387695 C6.27569138 209.74449661 6.00572845 208.76511627 5.72758484 207.75605774 C-2.93913679 174.92691681 5.09894074 138.28683718 20.6484375 108.8828125 C32.63150253 88.71619086 52.70630423 72.98036628 75 66 C77.64 65.67 80.28 65.34 83 65 C83 47.18 83 29.36 83 11 C60.0142243 11.95774065 46.15739823 13.5125719 30.68359375 29.9140625 C18.95455 44.44610279 15.27516998 60.93226322 12.1875 78.875 C11.87415596 80.6421241 11.55970942 82.40905308 11.24414062 84.17578125 C10.48340306 88.44838467 9.73750071 92.72332707 9 97 C6.03 97 3.06 97 0 97 C0 64.99 0 32.98 0 0 Z M124 77 C123.97027199 95.34012389 124.04285486 113.6763371 124.21875 132.015625 C124.24128217 134.46425272 124.26370002 136.91288149 124.28601074 139.36151123 C124.34406489 145.70034862 124.40363545 152.0391708 124.46356201 158.37799072 C124.52483183 164.88870382 124.58461206 171.3994306 124.64453125 177.91015625 C124.76159295 190.60678447 124.88040076 203.30339543 125 216 C135.56 216 146.12 216 157 216 C163.56119212 176.6328473 163.21349786 127.53305888 148 90 C142.47394458 83.12696857 132.4137009 79.01073757 124 77 Z M75.375 80.125 C74.77042969 80.40859375 74.16585938 80.6921875 73.54296875 80.984375 C68.33860225 83.53662297 62.72741324 86.54428858 60.046875 91.90673828 C59.32272589 94.09108235 58.79185881 96.24934331 58.3125 98.5 C58.02088989 99.72928223 58.02088989 99.72928223 57.72338867 100.98339844 C52.20582977 124.90857839 48.81251892 149.11600275 48.75 173.6875 C48.74766357 174.34710724 48.74532715 175.00671448 48.74291992 175.68630981 C48.72493445 189.29947139 50.169104 202.49714197 52 216 C62.23 216 72.46 216 83 216 C83 170.13 83 124.26 83 77 C80.45815681 77 77.66201564 79.0073209 75.375 80.125 Z M85 226 C85 241.51 85 257.02 85 273 C92.22020214 275.64268012 92.22020214 275.64268012 99.15625 276.3984375 C100.47302734 276.40423828 100.47302734 276.40423828 101.81640625 276.41015625 C102.70199219 276.39855469 103.58757812 276.38695312 104.5 276.375 C105.38558594 276.38660156 106.27117187 276.39820313 107.18359375 276.41015625 C108.06144531 276.40628906 108.93929688 276.40242188 109.84375 276.3984375 C111.00680664 276.39336182 111.00680664 276.39336182 112.19335938 276.38818359 C116.2491447 275.82723207 120.11571691 274.29476103 124 273 C124 257.49 124 241.98 124 226 C111.13 226 98.26 226 85 226 Z M197 227 C196.5153125 227.96679688 196.030625 228.93359375 195.53125 229.9296875 C191.39761381 238.01787035 187.01145356 245.12976736 181 252 C180.42894531 252.6909375 179.85789062 253.381875 179.26953125 254.09375 C176.92344421 256.92064006 175.09382931 258.93744713 172 261 C171.71327639 263.48425883 171.6213227 265.71860892 171.65942383 268.20361328 C171.65898575 268.9451767 171.65854767 269.68674011 171.65809631 270.45077515 C171.66019021 272.90755331 171.68354875 275.36365322 171.70703125 277.8203125 C171.71262509 279.52138903 171.71689619 281.22247038 171.71989441 282.92355347 C171.73135996 287.4051849 171.76084165 291.88652559 171.79400635 296.36804199 C171.82467052 300.93933173 171.83839191 305.51066835 171.85351562 310.08203125 C171.88570987 319.05481539 171.93692671 328.02738354 172 337 C177.10278798 337.03143034 182.20551686 337.05383082 187.30838013 337.06866455 C189.03613265 337.07486316 190.76387888 337.08332461 192.49160767 337.09429932 C229.64710572 338.55753733 229.64710572 338.55753733 262.6875 325.75 C273.48713014 314.60666304 277.14103922 300.7326895 277.08496094 285.44824219 C276.94784286 281.49703493 276.38854002 277.64771272 275.75 273.75 C275.5497522 272.51600464 275.5497522 272.51600464 275.34545898 271.25708008 C272.90967601 256.99432573 269.15168624 245.80451518 257 237 C239.10828472 227.30448948 216.9149169 226.67579723 197 227 Z M-56.5 243.8984375 C-67.6518031 259.52257831 -69.39606927 282.72439583 -66.68212891 301.15917969 C-64.58678852 311.57417505 -58.98033532 321.51840081 -50.7890625 328.3125 C-40.62725366 334.46082132 -26.58146149 335.04989012 -15 336 C-13.9937709 336.08417679 -12.98754181 336.16835358 -11.95082092 336.25508118 C-1.47750119 337.0444759 8.93853222 337.11688816 19.4375 337.0625 C21.15169138 337.05746829 22.86588421 337.05290837 24.58007812 337.04882812 C28.72008893 337.03797027 32.86002771 337.02080066 37 337 C37.25589551 327.28129845 37.45082547 317.56377155 37.56993389 307.84242535 C37.62712896 303.32724465 37.70457191 298.81438303 37.82983398 294.30053711 C37.9501648 289.93662401 38.01528741 285.57492726 38.04364967 281.20948219 C38.06383462 279.55194024 38.10325543 277.89450752 38.16303062 276.23792076 C38.68459183 266.30386166 38.68459183 266.30386166 34.58766174 257.60066223 C31.94672057 254.7981932 28.98088022 252.43294382 26 250 C23.96866803 247.55284465 22.24559666 245.00722945 20.5625 242.3125 C20.16869141 241.71373047 19.77488281 241.11496094 19.36914062 240.49804688 C16.56259982 236.15558822 14.25180899 231.65237074 12 227 C-10.45692834 226.6637998 -39.61462672 226.74923026 -56.5 243.8984375 Z M85 284 C84.76587284 305.40165208 84.58980047 326.8030915 84.48187828 348.20576668 C84.43042452 358.14461329 84.36033987 368.08266189 84.24560547 378.02099609 C84.14559124 386.68843328 84.08133775 395.35529227 84.05911505 404.02329051 C84.04613431 408.60867436 84.01587004 413.19240486 83.94269943 417.77725601 C83.87422466 422.1033965 83.85400021 426.42722186 83.86892319 430.75385284 C83.86619815 432.33163213 83.84665539 433.90949826 83.80794525 435.48680496 C83.52077978 447.80418687 86.91812359 454.75433558 95 464 C97.25855239 466.25855239 101.90571308 465.64731626 105 465.8125 C106.23943359 465.95655273 106.23943359 465.95655273 107.50390625 466.10351562 C111.76149882 466.28008245 114.17974333 465.72826305 117.42111111 462.85042191 C124.42546848 454.2102356 125.25642163 447.00030045 125.02172852 436.12402344 C125.01918461 434.45725137 125.02062507 432.79046925 125.02571106 431.123703 C125.02827579 426.6339854 124.97565776 422.14646619 124.91254544 417.65725613 C124.85598421 412.95287395 124.85097352 408.24843196 124.84031677 403.54376221 C124.81243063 394.65073043 124.73869544 385.7587037 124.64817137 376.86611295 C124.54730125 366.73557745 124.49802224 356.60499196 124.45291245 346.47407866 C124.35903675 325.6488265 124.20090574 304.82447676 124 284 C123.38287392 284.07068632 122.76574783 284.14137264 122.12992096 284.21420097 C121.31993401 284.30584589 120.50994705 284.39749081 119.67541504 284.49191284 C118.47128841 284.62887982 118.47128841 284.62887982 117.242836 284.76861382 C114.76833848 285.02389977 112.33113634 285.12919411 109.84375 285.1328125 C108.52697266 285.13474609 108.52697266 285.13474609 107.18359375 285.13671875 C105.85521484 285.13091797 105.85521484 285.13091797 104.5 285.125 C103.61441406 285.12886719 102.72882813 285.13273437 101.81640625 285.13671875 C100.93855469 285.13542969 100.06070312 285.13414062 99.15625 285.1328125 C98.38087891 285.13168457 97.60550781 285.13055664 96.80664062 285.12939453 C94.2874956 285.01325441 91.82901572 284.7767868 89.32458496 284.49191284 C88.51459801 284.40026793 87.70461105 284.30862301 86.87007904 284.21420097 C86.25295296 284.14351465 85.63582687 284.07282833 85 284 Z M172 383 C172.33 383.99 172.66 384.98 173 386 C173.33 385.01 173.66 384.02 174 383 C173.34 383 172.68 383 172 383 Z M104 474 C104.33 474.66 104.66 475.32 105 476 C105.99 475.67 106.98 475.34 108 475 C106.68 474.67 105.36 474.34 104 474 Z " fill="#FFFFFF" transform="translate(1888,148)"/>
<path d="M0 0 C0.70833984 0.36818848 1.41667969 0.73637695 2.14648438 1.11572266 C29.35249301 15.30102681 54.36407937 35.50898761 73 60 C73.39783691 60.52142578 73.79567383 61.04285156 74.20556641 61.58007812 C80.57802601 70.00375863 86.01765881 78.7786353 90.98144531 88.09765625 C91.91251848 89.8366117 92.87277818 91.55985887 93.8359375 93.28125 C114.92632502 132.59907651 117.98411389 180.68746409 105.53320312 223.09155273 C96.81238236 251.47343256 82.59614275 275.8419137 63 298 C62.52884766 298.53431641 62.05769531 299.06863281 61.57226562 299.61914062 C56.06080612 305.8373903 50.45757827 311.7471128 44 317 C43.24323975 317.63325195 43.24323975 317.63325195 42.47119141 318.27929688 C8.75250715 346.49269237 -31.9024945 364.74567495 -75 373 C-75.77118164 373.15162598 -76.54236328 373.30325195 -77.33691406 373.45947266 C-122.43220305 382.12266854 -170.08125159 378.85608033 -214 366 C-215.15991455 365.66427979 -215.15991455 365.66427979 -216.34326172 365.32177734 C-263.46567029 351.41459086 -308.0664736 322.01609052 -337 282 C-337.63349365 281.12504883 -337.63349365 281.12504883 -338.27978516 280.23242188 C-356.45326675 254.790944 -368.41664858 225.12515708 -372 194 C-372.11085938 193.06800781 -372.22171875 192.13601563 -372.3359375 191.17578125 C-374.72415148 167.51955353 -372.17425296 143.64965576 -365 121 C-364.7632959 120.24477051 -364.5265918 119.48954102 -364.28271484 118.71142578 C-351.61701108 79.3098008 -324.46131179 44.14285466 -291 20 C-290.39929687 19.56026855 -289.79859375 19.12053711 -289.1796875 18.66748047 C-209.73161622 -39.1525986 -95.83744226 -47.83277409 0 0 Z M-171 11 C-171.90959473 11.17160645 -172.81918945 11.34321289 -173.75634766 11.52001953 C-212.92370883 19.17828917 -248.95161434 36.48972856 -278 64 C-278.48936035 64.45149414 -278.9787207 64.90298828 -279.48291016 65.36816406 C-302.74922178 86.91721755 -318.76050432 115.93387939 -325 147 C-325.22429687 148.07507813 -325.44859375 149.15015625 -325.6796875 150.2578125 C-332.07439146 186.61126653 -322.01180968 224.50873906 -301.2578125 254.66992188 C-297.2090123 260.3596178 -292.84636909 265.65950743 -288.078125 270.76953125 C-286.16973109 272.81782622 -284.36375274 274.92035597 -282.5625 277.0625 C-250.31292915 313.68984065 -196.49645958 333.97925311 -149 338 C-143.06601291 338.35479731 -137.13039962 338.39037419 -131.1875 338.375 C-130.38762665 338.37445618 -129.5877533 338.37391235 -128.76364136 338.37335205 C-78.44332665 338.21736263 -26.82779171 320.82454381 11 287 C11.52529297 286.53352051 12.05058594 286.06704102 12.59179688 285.58642578 C19.13813923 279.75058278 25.54838944 273.89468394 31 267 C31.42603516 266.46987305 31.85207031 265.93974609 32.29101562 265.39355469 C56.1933654 235.45901515 70.18175299 198.13612334 66.375 159.5 C62.45076027 125.35840347 46.69657035 94.62433167 23 70 C22.52481934 69.49903809 22.04963867 68.99807617 21.56005859 68.48193359 C-8.09981589 37.32550285 -48.08428121 18.90792569 -90 11 C-90.87221191 10.83483887 -91.74442383 10.66967773 -92.64306641 10.49951172 C-118.04799037 5.93238744 -145.66090983 6.20181647 -171 11 Z " fill="#FFFFFF" transform="translate(1728,862)"/>
<path d="M0 0 C1.64358874 -0.0040699 3.28717475 -0.00941413 4.93075562 -0.01593018 C9.38196463 -0.0295727 13.83296429 -0.02431437 18.28417683 -0.01479292 C22.96466422 -0.00716506 27.64513441 -0.014252 32.32562256 -0.01895142 C40.19725737 -0.02440637 48.06880772 -0.01723096 55.94042969 -0.00292969 C64.99250951 0.01332823 74.04438586 0.00815742 83.09646058 -0.0084089 C90.90155831 -0.02211299 98.70659545 -0.02389821 106.51170135 -0.0160929 C111.15794299 -0.01145622 115.80408977 -0.01067797 120.45032501 -0.02070236 C163.98836027 -0.10187737 163.98836027 -0.10187737 184.55371094 6.13818359 C185.41657715 6.39349854 186.27944336 6.64881348 187.16845703 6.91186523 C199.61815183 10.71945248 211.14223317 15.83564927 221.80371094 23.38818359 C223.31771484 24.45746094 223.31771484 24.45746094 224.86230469 25.54833984 C235.637987 33.39131461 243.58415927 42.32070166 251.60400391 52.83886719 C252.55928866 54.07253366 253.55237242 55.27690647 254.55761719 56.47021484 C271.63048562 77.07860917 274.88224603 107.2359996 272.58544922 132.81933594 C272.01210089 137.11289871 270.99733328 141.22991388 269.80371094 145.38818359 C269.48660156 146.56509766 269.16949219 147.74201172 268.84277344 148.95458984 C261.57793175 173.24801434 244.8675765 199.95221926 222.30761719 212.59912109 C220.33180858 213.6625131 218.35122666 214.71707902 216.36621094 215.76318359 C215.34849609 216.30845703 214.33078125 216.85373047 213.28222656 217.41552734 C210.79342073 218.74756427 208.30066722 220.07150791 205.80371094 221.38818359 C206.53477051 221.91968018 207.26583008 222.45117676 208.01904297 222.9987793 C209.90429994 224.37027805 211.7880562 225.74384043 213.67089844 227.11865234 C215.62308777 228.53289424 217.58508377 229.93381646 219.56152344 231.31396484 C226.88102894 236.46749423 233.33963677 242.226003 239.80371094 248.38818359 C240.59777344 249.11779297 241.39183594 249.84740234 242.20996094 250.59912109 C261.58843255 268.95408188 270.34041365 292.23757603 271.09399414 318.53173828 C271.51921794 332.86925534 272.51601715 347.02703913 278.03417969 360.41943359 C278.80371094 362.38818359 278.80371094 362.38818359 278.80371094 364.38818359 C279.75246094 364.30568359 280.70121094 364.22318359 281.67871094 364.13818359 C287.56181932 364.17398344 293.32594494 366.19016537 297.74121094 370.10693359 C302.60643667 375.62709356 303.15511302 380.16945516 303.08496094 387.43896484 C302.59035912 392.62541446 300.12391855 395.1722029 296.42871094 398.57568359 C288.37920115 404.13367845 281.07869687 405.27072035 271.52636719 403.92724609 C259.84326733 401.77075644 249.98555528 396.8038004 242.42480469 387.44287109 C228.45470012 367.09999968 225.28089619 345.67967476 224.46777344 321.46972656 C223.81252428 301.99181545 219.74032154 287.96990328 205.51391602 273.96923828 C198.04945334 267.06847307 190.1711511 262.08574272 181.11621094 257.51318359 C180.06626953 256.96533203 179.01632813 256.41748047 177.93457031 255.85302734 C174.99222074 254.34474962 172.02263296 252.91224782 169.03883743 251.4886322 C166.69941458 250.33683402 164.41086479 249.10711717 162.11245728 247.87573242 C146.42417405 239.86956057 131.92643399 238.95546915 114.61508107 239.17231512 C110.94891153 239.20734729 107.28304394 239.18448095 103.61680603 239.16848755 C96.7145428 239.14680154 89.81348409 239.17508499 82.91138786 239.22261059 C75.03668606 239.27430372 67.16233117 239.26833132 59.28750432 239.25818992 C43.12579645 239.23863333 26.96513838 239.28929957 10.80371094 239.38818359 C10.80739811 240.19086701 10.81108528 240.99355043 10.81488419 241.82055759 C10.90325346 261.35909016 10.96942944 280.8975828 11.01095963 300.43627262 C11.03157757 309.88507836 11.0596835 319.33375063 11.10546875 328.7824707 C11.14536001 337.01877811 11.17114933 345.25498884 11.18006492 353.49139017 C11.1852758 357.85181963 11.19750719 362.21197255 11.22663116 366.57231331 C11.25383651 370.67877933 11.26214566 374.78485561 11.25614166 378.8914032 C11.25723962 380.39622556 11.26516323 381.90106132 11.28053284 383.40580559 C11.36456827 392.05968056 11.40614366 398.49459941 5.19824219 405.09521484 C-1.50599704 409.77990546 -8.5424749 411.12962151 -16.63769531 410.05615234 C-22.51770426 408.52106604 -28.21310651 405.29370071 -31.75878906 400.26318359 C-34.03194175 395.71687822 -34.32253881 392.10860428 -34.33051014 387.03059006 C-34.33496798 385.71431932 -34.33942583 384.39804859 -34.34401876 383.04189086 C-34.34392946 381.57746743 -34.34373961 380.11304401 -34.34346008 378.64862061 C-34.34675944 377.09581925 -34.35048516 375.54301876 -34.35460156 373.99021935 C-34.36462125 369.71630703 -34.3683383 365.44240876 -34.37099087 361.16848636 C-34.37489394 356.56167424 -34.38447218 351.95487325 -34.39320374 347.34806824 C-34.41296663 336.22020058 -34.4230335 325.09233201 -34.43193153 313.96445119 C-34.43631415 308.72548893 -34.44168097 303.48652768 -34.44692039 298.24756622 C-34.46393144 280.83506861 -34.47842647 263.42257163 -34.48566914 246.01006699 C-34.48757906 241.49141184 -34.48949939 236.97275669 -34.49145508 232.45410156 C-34.49193882 231.33100028 -34.49242256 230.207899 -34.49292096 229.05076435 C-34.5012245 210.84988649 -34.52656746 192.64907429 -34.55903576 174.44822511 C-34.59209023 155.76669351 -34.61011638 137.08519531 -34.61331338 118.40363431 C-34.61547981 107.91259009 -34.62424821 97.42164166 -34.64977455 86.93062592 C-34.6714594 77.99776222 -34.67954283 69.06501757 -34.66980777 60.13213053 C-34.66525683 55.57416882 -34.6671954 51.01645286 -34.68656921 46.4585247 C-34.70415683 42.28480469 -34.70323914 38.11151051 -34.68767192 33.93778625 C-34.68528916 32.42901998 -34.68965404 30.92022457 -34.70150057 29.41150293 C-34.77214903 19.81880249 -34.487765 12.77719308 -27.44628906 5.57568359 C-18.6747798 -0.32821687 -10.201831 -0.04243247 0 0 Z M10.80371094 39.38818359 C10.80371094 92.18818359 10.80371094 144.98818359 10.80371094 199.38818359 C47.68121094 199.63568359 47.68121094 199.63568359 85.30371094 199.88818359 C93.04130859 199.96101563 100.77890625 200.03384766 108.75097656 200.10888672 C115.74015917 200.13565664 115.74015917 200.13565664 122.72937012 200.1517334 C125.82164256 200.15913077 128.91279529 200.18887787 132.00476074 200.23278809 C156.17327878 201.02256342 156.17327878 201.02256342 177.80371094 191.38818359 C179.44471134 190.35468832 181.08742109 189.32389012 182.73339844 188.29833984 C184.05796001 187.36236343 185.37346236 186.4134096 186.67871094 185.45068359 C187.38503662 184.94126221 188.0913623 184.43184082 188.8190918 183.90698242 C194.49179789 179.75636465 199.70116964 175.21971079 204.80371094 170.38818359 C206.19405708 169.17354054 207.58966655 167.964888 208.99121094 166.76318359 C209.95607422 165.90660156 209.95607422 165.90660156 210.94042969 165.03271484 C212.12914829 163.9835523 213.33864283 162.95716783 214.57324219 161.96240234 C224.35526773 153.41693082 229.65735606 138.46835958 230.61621094 125.88818359 C231.87187535 104.46216379 222.51451257 86.18052837 208.80371094 70.38818359 C196.60917325 57.09678273 180.03558299 49.53338083 162.92871094 44.63818359 C162.28321289 44.4515918 161.63771484 44.265 160.97265625 44.07275391 C158.59557642 43.43772587 156.20812621 42.91187377 153.80371094 42.38818359 C152.67654663 42.13826157 151.54938232 41.88833954 150.38806152 41.63084412 C135.89894981 38.69750845 121.42590675 39.00624073 106.70214844 39.09521484 C104.23836471 39.09963642 101.77457814 39.10269033 99.31079102 39.10437012 C90.2667208 39.11997449 81.22271127 39.16185782 72.17871094 39.20068359 C41.79808594 39.29349609 41.79808594 39.29349609 10.80371094 39.38818359 Z " fill="#FFFFFF" transform="translate(2321.1962890625,829.61181640625)"/>
<path d="M0 0 C0.68521913 -0.00382555 1.37043827 -0.00765109 2.07642162 -0.01159257 C4.36050575 -0.02186738 6.64433588 -0.01794079 8.92843628 -0.01396179 C10.57172883 -0.01831183 12.21501936 -0.02349596 13.85830688 -0.02944946 C18.31785281 -0.04283241 22.77731392 -0.04341795 27.23687601 -0.04088616 C30.97323243 -0.03981405 34.70957187 -0.04470698 38.44592464 -0.04949158 C47.27897534 -0.06058848 56.11198354 -0.06102587 64.94503784 -0.05497742 C74.01183632 -0.04896326 83.07847861 -0.06118279 92.14525044 -0.08254749 C99.95879282 -0.10027209 107.77228603 -0.10614711 115.58584774 -0.10290974 C120.23883546 -0.10111087 124.89171228 -0.10358975 129.54468155 -0.11762428 C172.40435687 -0.23581576 215.1095974 4.79013846 247.58029175 35.76069641 C249.81930101 38.18728755 251.90121209 40.67885955 253.959198 43.26069641 C254.8834239 44.38850818 255.80791988 45.51609865 256.7326355 46.64350891 C275.81607942 70.16481412 285.41432323 98.20466386 282.75704956 128.570755 C280.21354224 150.82404451 271.00496825 171.85185441 256.959198 189.26069641 C256.29597534 190.0979425 256.29597534 190.0979425 255.61935425 190.95210266 C244.49425232 204.9112414 231.56219011 212.90885527 215.959198 221.26069641 C219.1049142 223.83819199 222.32284433 226.24321227 225.66598511 228.55830383 C233.89593482 234.27596533 241.51057597 240.56428136 248.959198 247.26069641 C249.98980347 248.18108704 249.98980347 248.18108704 251.04122925 249.12007141 C267.07901423 264.29399444 279.49628556 285.87408595 280.26779175 308.18647766 C280.3150803 310.31529234 280.35788752 312.4442103 280.396698 314.57319641 C280.87319631 330.84370078 281.53149911 348.40529863 288.959198 363.26069641 C291.24128819 363.72891287 291.24128819 363.72891287 293.959198 364.01069641 C300.72068049 365.15372986 306.07032346 367.62227605 310.4045105 373.08100891 C313.35630327 378.17956007 313.99560653 383.49166128 312.959198 389.26069641 C310.52459605 395.68939188 306.10691387 399.44346854 299.959198 402.26069641 C289.5519155 406.12048468 278.58637897 404.52971877 268.67086792 400.02363586 C254.77385079 393.3051125 246.70495052 381.96819289 241.08810425 367.76850891 C235.89059767 351.61847118 234.79581479 335.27801651 234.5295105 318.42475891 C234.06379318 301.34845723 228.78560251 287.27039331 216.7795105 274.87007141 C208.42311239 267.13866706 199.10595582 261.5810368 189.084198 256.26069641 C188.24348755 255.81089417 187.4027771 255.36109192 186.53659058 254.8976593 C184.06260629 253.62424218 181.56084007 252.43410117 179.04002285 251.2570982 C177.56806054 250.55224989 176.10718043 249.82403627 174.65479374 249.07968616 C157.75790983 240.48545878 142.56885171 238.80827107 123.87110329 239.04482794 C120.23563666 239.07990191 116.60047122 239.05698605 112.9649353 239.04100037 C106.12290801 239.01932935 99.28209709 239.04757331 92.44023848 239.09512341 C84.63322648 239.14684805 76.82656368 239.14084073 69.01942539 239.13070273 C52.99891185 239.11115531 36.97944581 239.16177138 20.959198 239.26069641 C20.96288517 240.05215057 20.96657234 240.84360474 20.97037125 241.65904236 C21.05876925 260.93087869 21.12493047 280.20267448 21.16644669 299.47467041 C21.18705808 308.79453317 21.21515145 318.11426046 21.26095581 327.43403625 C21.30086717 335.55865191 21.32664115 343.68316944 21.33555198 351.8078804 C21.34075946 356.10853983 21.35296914 360.40891858 21.38211823 364.70948792 C21.40935538 368.76096645 21.41762634 372.81204982 21.41162872 376.86361122 C21.41272526 378.34705061 21.42062986 379.8305038 21.4360199 381.31386375 C21.53222269 391.06832235 21.21473546 397.70119199 14.334198 405.07319641 C8.15770528 409.65125006 0.84009972 410.9369009 -6.65408325 409.83100891 C-14.44728187 407.96880433 -18.94185657 404.21851119 -23.15770978 397.47382343 C-24.33936824 394.51245631 -24.29287378 392.03876714 -24.2952776 388.85066414 C-24.29848407 388.20626434 -24.30169055 387.56186454 -24.3049942 386.89793748 C-24.3133226 384.72979635 -24.30736011 382.56192942 -24.30149841 380.39378357 C-24.30451781 378.82718151 -24.30840622 377.26058092 -24.31309098 375.69398296 C-24.32340713 371.38198071 -24.32117999 367.07006127 -24.31691039 362.75805211 C-24.31444969 358.11037493 -24.32344915 353.46271804 -24.33094788 348.81504822 C-24.34371539 339.70688997 -24.345486 330.59876117 -24.34314761 321.49059547 C-24.34136652 314.08894563 -24.3431096 306.68730475 -24.34737206 299.28565598 C-24.34796724 298.233293 -24.34856243 297.18093003 -24.34917566 296.09667727 C-24.35038738 293.95897779 -24.35160151 291.82127831 -24.35281803 289.68357883 C-24.36370156 269.62334675 -24.36152728 249.56313147 -24.35543319 229.50289844 C-24.35026373 211.14224982 -24.36151879 192.78165424 -24.38053141 174.42101611 C-24.39989324 155.57902871 -24.40816869 136.73706642 -24.40440816 117.895069 C-24.40249354 107.31245038 -24.40500894 96.72987691 -24.4191227 86.14726639 C-24.43101642 77.13786401 -24.43246403 68.12853457 -24.42033253 59.11913122 C-24.4144296 54.52095764 -24.41338332 49.92291762 -24.42533493 45.32475281 C-24.43614571 41.11665091 -24.43314797 36.90879485 -24.41907325 32.70070468 C-24.416413 31.17717454 -24.41883427 29.65362544 -24.42680911 28.13011386 C-24.43689141 26.06058187 -24.42851462 23.99190837 -24.41553211 21.92241096 C-24.41558713 20.77250777 -24.41564214 19.62260458 -24.41569883 18.43785584 C-23.76545297 12.92718031 -21.38376745 9.08423278 -17.228302 5.51069641 C-16.58248169 4.93835266 -15.93666138 4.36600891 -15.27127075 3.77632141 C-10.45833442 0.50588481 -5.7095801 0.00959064 0 0 Z M20.959198 39.26069641 C20.959198 92.06069641 20.959198 144.86069641 20.959198 199.26069641 C57.589198 199.50819641 57.589198 199.50819641 94.959198 199.76069641 C102.64458862 199.83352844 110.32997925 199.90636047 118.2482605 199.98139954 C125.19087318 200.00816961 125.19087318 200.00816961 132.1335144 200.02424622 C135.20495683 200.03164298 138.27527173 200.06138746 141.34640503 200.1053009 C165.4170328 200.83878692 165.4170328 200.83878692 186.959198 191.26069641 C188.40569894 190.40490675 189.85551603 189.55465699 191.3107605 188.71382141 C200.08490249 182.80855162 208.18177883 176.42972069 215.959198 169.26069641 C216.93566284 168.3681012 216.93566284 168.3681012 217.93185425 167.45747375 C226.11307475 159.90087919 233.10903233 152.96057541 236.959198 142.26069641 C237.45806519 141.01352844 237.45806519 141.01352844 237.9670105 139.74116516 C243.27408886 124.17851646 240.40427502 106.05040991 233.37594604 91.59223938 C221.74373762 69.09344283 203.06820543 54.08716843 178.959198 46.26069641 C163.83045853 41.79376605 148.82468365 38.9324112 133.00875854 39.03364563 C131.76816838 39.03340456 130.52757822 39.03316349 129.24939442 39.03291512 C126.60515716 39.03390035 123.96124425 39.0383637 121.31706238 39.04954529 C117.52443834 39.06467189 113.73195166 39.06976552 109.93930054 39.07148743 C100.84174716 39.08192186 91.74422062 39.10984435 82.646698 39.13569641 C52.1113855 39.19757141 52.1113855 39.19757141 20.959198 39.26069641 Z " fill="#FFFFFF" transform="translate(1918.0408020019531,829.7393035888672)"/>
<path d="M0 0 C1.06335571 0.01244751 1.06335571 0.01244751 2.14819336 0.02514648 C10.89486282 0.3080115 15.58325936 3.32674432 21.4375 9.546875 C23.62108159 11.99329511 25.77715766 14.46139174 27.91796875 16.9453125 C30.88297606 20.29340925 33.94108242 23.55030121 37 26.8125 C40.91379012 30.98748207 44.8131085 35.16875259 48.625 39.4375 C52.39844012 43.66150014 56.25330385 47.80387092 60.125 51.9375 C64.71356337 56.83649472 69.24675344 61.7752837 73.71875 66.78125 C76.81720233 70.20161946 79.97017196 73.56918108 83.125 76.9375 C87.75946686 81.88625123 92.34368419 86.87151836 96.86328125 91.92578125 C101.05359272 96.5792705 105.31846168 101.16437642 109.57226562 105.75976562 C112.1126648 108.50467492 114.65032337 111.25211219 117.1875 114 C117.68483643 114.53858643 118.18217285 115.07717285 118.69458008 115.63208008 C122.46622461 119.71869476 126.22537135 123.8166198 129.98071289 127.91821289 C133.3530119 131.59977522 136.73681813 135.27055401 140.125 138.9375 C143.98710018 143.11776515 147.84264629 147.30386429 151.6875 151.5 C152.57695312 152.47066406 153.46640625 153.44132813 154.3828125 154.44140625 C156.29612987 156.53085934 158.20711807 158.62242142 160.1171875 160.71484375 C160.61017334 161.25423584 161.10315918 161.79362793 161.61108398 162.34936523 C162.97967863 163.84687713 164.34729289 165.34528484 165.71484375 166.84375 C167.80588263 169.09407385 169.93545521 171.28351627 172.125 173.4375 C176.30144661 169.37530269 180.25305002 165.19906619 184.05859375 160.7890625 C186.61713913 157.87744753 189.2414045 155.03116504 191.875 152.1875 C192.6486792 151.35206665 192.6486792 151.35206665 193.43798828 150.49975586 C194.48772657 149.36647495 195.53753133 148.23325561 196.58740234 147.10009766 C198.96208074 144.53236824 201.32548145 141.9543718 203.6875 139.375 C204.36184082 138.63878418 204.36184082 138.63878418 205.04980469 137.88769531 C205.95530793 136.89898718 206.86074434 135.91021783 207.76611328 134.92138672 C210.05142496 132.42585593 212.3382958 129.93175473 214.625 127.4375 C215.54167404 126.43750675 216.4583407 125.43750676 217.375 124.4375 C233.875 106.4375 233.875 106.4375 235.25048828 104.93701172 C236.16558633 103.93869339 237.08062555 102.94032114 237.99560547 101.94189453 C240.31078852 99.4157158 242.6270401 96.89053168 244.9453125 94.3671875 C249.17266751 89.76400235 253.39026083 85.15336224 257.5625 80.5 C262.02143915 75.53237617 266.54938331 70.63066748 271.08203125 65.73046875 C273.95894762 62.61967159 276.82549617 59.49951655 279.6875 56.375 C280.13722168 55.88402832 280.58694336 55.39305664 281.05029297 54.88720703 C281.95562602 53.89865485 282.86089963 52.91004823 283.76611328 51.92138672 C286.05142496 49.42585593 288.3382958 46.93175473 290.625 44.4375 C291.54167404 43.43750675 292.4583407 42.43750676 293.375 41.4375 C298.875 35.4375 298.875 35.4375 300.2512207 33.93652344 C301.16429057 32.9402112 302.07689132 31.94346882 302.98901367 30.94628906 C305.3319753 28.38606871 307.68356179 25.83469779 310.05078125 23.296875 C311.01334405 22.26071683 311.9755878 21.22426217 312.9375 20.1875 C313.40486572 19.68653809 313.87223145 19.18557617 314.35375977 18.66943359 C316.87125941 15.93500962 319.03920671 13.17434875 321.0625 10.0625 C324.87017687 4.89184789 330.08755003 2.32377285 336.125 0.4375 C344.33643519 -0.65066165 352.31624376 -0.73242409 359.125 4.4375 C364.29713701 8.69014599 366.71584812 13.22273525 367.5625 19.875 C366.56138461 28.02693959 361.71097192 33.44834902 356.125 39.125 C354.77425798 40.53078742 353.42400363 41.93704355 352.07421875 43.34375 C351.40567871 44.0346875 350.73713867 44.725625 350.04833984 45.4375 C347.301393 48.29393419 344.61619375 51.20470385 341.9375 54.125 C340.96497552 55.18111094 339.99232 56.23710123 339.01953125 57.29296875 C338.30531006 58.06906494 338.30531006 58.06906494 337.57666016 58.86083984 C335.095536 61.5556094 332.61004209 64.24634393 330.125 66.9375 C327.14704045 70.16277752 324.16963117 73.38855166 321.1953125 76.6171875 C315.24365783 83.07528179 309.26396718 89.5061774 303.26611328 95.92138672 C298.80215779 100.70058982 294.3807427 105.51651093 289.96875 110.34375 C286.11502945 114.54780878 282.21218356 118.70606185 278.31640625 122.87109375 C274.73112869 126.7074192 271.16747746 130.5616129 267.625 134.4375 C263.48708816 138.96486236 259.31475405 143.45809512 255.125 147.9375 C249.99252466 153.42556767 244.89525729 158.94345224 239.82421875 164.48828125 C232.61402534 172.36627839 225.35531799 180.19847317 218.0625 188 C213.71488497 192.65354945 209.37422402 197.31314929 205.0625 202 C204.22589844 202.90878906 203.38929688 203.81757812 202.52734375 204.75390625 C201.73457031 205.63949219 200.94179687 206.52507812 200.125 207.4375 C199.26294197 208.32735407 198.40088394 209.21720814 197.51270294 210.13402748 C194.63394077 213.62472767 194.50658346 216.4402346 194.51940918 220.97665405 C194.51458133 221.71525905 194.50975348 222.45386405 194.50477934 223.21485102 C194.49457482 225.67947521 194.51982944 228.14243543 194.54492188 230.60693359 C194.54465513 232.37806873 194.54212035 234.14920476 194.53749084 235.92033386 C194.53209118 239.72967045 194.54211947 243.53854358 194.5639801 247.34782028 C194.59786955 253.37429245 194.59375231 259.40037296 194.5838623 265.4269104 C194.56687657 279.30950726 194.59963781 293.19190388 194.63278961 307.07445526 C194.66265885 319.79431546 194.68198505 332.51395788 194.66112375 345.23384917 C194.65273824 351.2213967 194.66851606 357.20824212 194.70291901 363.19568992 C194.71939282 366.92511007 194.71519734 370.65430252 194.70547295 374.38373756 C194.7052135 376.1090649 194.71350089 377.83441866 194.73111153 379.55965614 C194.89473617 396.41333413 194.89473617 396.41333413 189.125 402.4375 C184.13861626 407.29602775 178.73806297 408.73131518 171.875 408.875 C164.05396295 408.74986341 158.11213505 406.49931343 152.625 400.875 C152.13 400.070625 151.635 399.26625 151.125 398.4375 C150.76883449 397.87776112 150.41266897 397.31802223 150.04571056 396.74132156 C148.77128972 393.55243862 148.8606292 390.51869558 148.89363098 387.13885498 C148.89235082 386.03351076 148.89235082 386.03351076 148.8910448 384.90583634 C148.89043063 382.43549179 148.9039484 379.96542311 148.91723633 377.49511719 C148.91939759 375.72427967 148.92058417 373.95344074 148.92086792 372.18260193 C148.92292404 368.36791974 148.93062844 364.55330448 148.9423008 360.73863983 C148.95944865 354.70399995 148.95621196 348.66948001 148.94865417 342.63482666 C148.92946234 325.47409626 148.92277933 308.31352075 148.97045898 291.15283203 C148.99662266 281.67593926 148.99791811 272.19938721 148.97131175 262.7224915 C148.95832436 257.70857444 148.95834514 252.6953961 148.9891758 247.68154144 C149.01813025 242.96326514 149.01464486 238.24612018 148.98656845 233.5278492 C148.98207877 231.79930792 148.98949535 230.07068706 149.00989723 228.34226036 C149.40744911 217.74603903 149.40744911 217.74603903 144.78593445 208.57818604 C143.59076903 207.50267239 142.37063541 206.45413287 141.125 205.4375 C139.96630036 204.2150003 138.82099052 202.97953472 137.6953125 201.7265625 C136.54789544 200.50424962 135.39943887 199.2829118 134.25 198.0625 C129.57313006 193.07507111 124.94786345 188.05048059 120.390625 182.953125 C117.19424741 179.40404367 113.94993938 175.90011242 110.70654297 172.39404297 C107.33630477 168.75068639 103.97601246 165.09854469 100.625 161.4375 C96.80171073 157.26150369 92.96734165 153.09597196 89.125 148.9375 C83.89684474 143.27864233 78.68655894 137.60367151 73.48388672 131.92138672 C71.19857504 129.42585593 68.9117042 126.93175473 66.625 124.4375 C65.70832596 123.43750675 64.7916593 122.43750676 63.875 121.4375 C63.42125 120.9425 62.9675 120.4475 62.5 119.9375 C42.79166667 98.4375 23.08333333 76.9375 3.375 55.4375 C2.9207666 54.9420166 2.4665332 54.4465332 1.99853516 53.93603516 C1.08657421 52.94108026 0.17478888 51.94596437 -0.73681641 50.95068359 C-3.09902876 48.37211119 -5.46469428 45.79683466 -7.8359375 43.2265625 C-8.32384766 42.69675781 -8.81175781 42.16695312 -9.31445312 41.62109375 C-10.66443793 40.15539596 -12.01576745 38.69093706 -13.3671875 37.2265625 C-23.39253053 26.07688194 -23.39253053 26.07688194 -23.19140625 16.97265625 C-22.55900791 11.90566217 -20.20145227 8.694139 -16.5 5.1875 C-11.00745867 1.52580578 -6.62346864 -0.09948912 0 0 Z " fill="#FFFFFF" transform="translate(2636.875,829.5625)"/>
<path d="M0 0 C1.21811896 -0.00445784 2.43623792 -0.00891569 3.69126958 -0.01350862 C5.04495697 -0.01341932 6.39864436 -0.01322948 7.75233173 -0.01294994 C9.18892606 -0.01624961 10.62551946 -0.01997539 12.06211168 -0.02409142 C16.01484942 -0.03410778 19.96757199 -0.03782763 23.92032063 -0.04048073 C28.18154586 -0.04438482 32.44275907 -0.05396304 36.70397663 -0.0626936 C46.99684009 -0.08245426 57.28970452 -0.09252337 67.58258221 -0.10142139 C72.42941173 -0.10580463 77.27624015 -0.11117132 82.12306881 -0.11641026 C98.2342271 -0.13342156 114.34538471 -0.14791611 130.4565506 -0.155159 C134.63728238 -0.15706889 138.81801416 -0.15898923 142.99874592 -0.16094494 C144.03784767 -0.16142868 145.07694943 -0.16191242 146.14753912 -0.16241082 C162.98330689 -0.17071255 179.81900365 -0.19605234 196.65474042 -0.22852562 C213.93845161 -0.26159129 231.2221267 -0.27960728 248.50586969 -0.28280324 C258.2105578 -0.28496871 267.91514232 -0.29372285 277.61979961 -0.31926441 C285.88399547 -0.34096462 294.14806257 -0.34902514 302.41228368 -0.33929763 C306.62810685 -0.33475106 310.84366433 -0.33665984 315.0594511 -0.35605907 C318.92174673 -0.37367808 322.78358258 -0.37270356 326.645883 -0.35716178 C328.04026717 -0.35478378 329.43468307 -0.35911934 330.82901873 -0.37099043 C339.88674415 -0.44330595 347.3337995 0.13532706 354.45748615 6.13422108 C355.26186115 7.12422108 355.26186115 7.12422108 356.08248615 8.13422108 C356.91779865 9.12422108 356.91779865 9.12422108 357.76998615 10.13422108 C360.52700483 14.33539239 360.71469525 19.22792229 360.08248615 24.13422108 C358.18492087 30.02209507 355.15056116 33.68793007 350.08248615 37.13422108 C345.77346487 38.86232176 342.17982656 39.38232837 337.55248737 39.37473011 C336.25687382 39.37747944 334.96126026 39.38022877 333.62638569 39.38306141 C332.20306017 39.37598446 330.77973559 39.36871486 329.35641193 39.36127186 C327.84815701 39.36070733 326.33990153 39.36102512 324.83164692 39.36215687 C320.74737332 39.36272976 316.66321763 39.3509858 312.57897139 39.33700895 C308.30686417 39.32449094 304.03475414 39.32333025 299.76263142 39.32095814 C291.67733988 39.31474652 283.59210255 39.29834 275.50683486 39.27825916 C266.30010705 39.25589027 257.09337662 39.24490424 247.88662839 39.23486829 C228.9518836 39.2139735 210.01718924 39.17880369 191.08248615 39.13422108 C191.08476447 40.26390535 191.08476447 40.26390535 191.08708882 41.41641152 C191.17656314 86.03322022 191.24521316 130.65001918 191.28674747 175.26689959 C191.29175041 180.62176211 191.29692769 185.97662445 191.30221272 191.3314867 C191.30326196 192.39756231 191.3043112 193.46363792 191.30539224 194.56201886 C191.32280675 211.83331912 191.3543502 229.10456624 191.39109734 246.37583496 C191.42847764 264.09219503 191.45071584 281.80852722 191.45884013 299.52492511 C191.46433394 310.46061378 191.48169783 321.39615223 191.51415202 332.33179466 C191.53526398 339.8264893 191.54169373 347.32110605 191.53649166 354.81582828 C191.53392471 359.14264402 191.53791357 363.46919691 191.55930805 367.79596615 C191.57874808 371.75632512 191.57977297 375.71624402 191.56608173 379.67662309 C191.56438916 381.1101074 191.56948522 382.54361897 191.58201888 383.97704948 C191.66135076 393.60922218 191.19104048 397.92784403 184.45748615 404.82172108 C178.96167264 409.07787741 172.43249183 410.4583196 165.58248615 410.19672108 C158.36642277 409.24481484 152.44351942 406.18553289 147.97558689 400.41134262 C144.8180722 394.66451525 145.5456432 388.10987566 145.60146809 381.73933887 C145.59972277 380.26074076 145.59621857 378.78214385 145.59111142 377.30355352 C145.58217979 373.24884791 145.59814991 369.19456603 145.61822367 365.13991439 C145.63551051 360.76440041 145.62965109 356.38890999 145.62661457 352.01337147 C145.62451799 344.43524555 145.63705939 336.85725747 145.65956593 329.27916622 C145.69208526 318.32256527 145.70249288 307.36603091 145.70751789 296.40938693 C145.71627064 278.63264999 145.7428857 260.8559865 145.78072834 243.07928944 C145.81744893 225.81171505 145.84576047 208.54416062 145.86275959 191.27655506 C145.86381048 190.2120367 145.86486138 189.14751835 145.86594412 188.05074186 C145.8711643 182.71032299 145.87621912 177.36990398 145.88119173 172.02948487 C145.92265315 127.73101273 145.99310106 83.43262069 146.08248615 39.13422108 C145.29618572 39.13790825 144.50988529 39.14159542 143.69975758 39.14539433 C124.55309952 39.2337937 105.40648228 39.29995421 86.25966358 39.34146976 C77.0003345 39.36208085 67.74114177 39.39017362 58.48190022 39.43597889 C50.41002227 39.47589121 42.33824309 39.50166446 34.26626921 39.51057506 C29.99355464 39.51578238 25.7211226 39.52799102 21.44849873 39.5571413 C17.42328434 39.58437999 13.3984677 39.59264912 9.3731699 39.5866518 C7.89940571 39.58774828 6.42562762 39.59565196 4.9519434 39.61104298 C-4.82075615 39.70806396 -10.96193264 39.09868605 -18.73001385 32.88422108 C-22.3130133 28.3798789 -24.3187351 23.90782272 -23.85501385 18.07172108 C-22.59403717 11.42884394 -19.89215517 7.54104568 -14.41751385 3.75922108 C-9.53367914 0.63155981 -5.77332389 0.00979899 0 0 Z " fill="#FFFFFF" transform="translate(1004.9175138473511,829.8657789230347)"/>
<path d="M0 0 C14.19 0 28.38 0 43 0 C51.05689084 17.04068063 59.09242178 34.08257033 66.875 51.25 C67.18464691 51.93295135 67.49429382 52.61590271 67.81332397 53.31954956 C70.41603477 59.06284137 73.01121821 64.80952356 75.60546875 70.55664062 C76.58528939 72.7266033 77.56586417 74.89622569 78.54736328 77.06542969 C79.40727151 78.96614629 80.26515049 80.86778278 81.12060547 82.77050781 C81.49072754 83.58874023 81.86084961 84.40697266 82.2421875 85.25 C82.71954346 86.30960938 82.71954346 86.30960938 83.20654297 87.390625 C83.89276224 88.9999401 83.89276224 88.9999401 85 90 C93.75350907 71.08317278 102.49933972 52.16304469 111.125 33.1875 C111.41770782 32.54418732 111.71041565 31.90087463 112.01199341 31.23806763 C116.73589326 20.85190072 121.36571616 10.42713864 126 0 C140.19 0 154.38 0 169 0 C169 4.29 169 8.58 169 13 C164.06835938 13.34179688 164.06835938 13.34179688 159.13671875 13.68359375 C155.97409042 13.8867371 155.97409042 13.8867371 153 15 C153 49.65 153 84.3 153 120 C158.28 120.66 163.56 121.32 169 122 C169 125.96 169 129.92 169 134 C148.54 134 128.08 134 107 134 C107 130.04 107 126.08 107 122 C108.35544922 121.92652344 108.35544922 121.92652344 109.73828125 121.8515625 C110.91777344 121.77679687 112.09726563 121.70203125 113.3125 121.625 C115.07013672 121.52058594 115.07013672 121.52058594 116.86328125 121.4140625 C120.15699887 121.21386253 120.15699887 121.21386253 123 119 C124.12659519 115.62021442 124.12020983 113.07183864 124.11352539 109.5090332 C124.11367142 108.8551059 124.11381744 108.20117859 124.1139679 107.5274353 C124.11327188 105.36851674 124.10549408 103.20968472 124.09765625 101.05078125 C124.09579096 99.55291287 124.09436758 98.05504389 124.09336853 96.55717468 C124.08955207 92.61654981 124.0797292 88.67596186 124.06866455 84.73535156 C124.05843172 80.71354675 124.0538669 76.69173596 124.04882812 72.66992188 C124.03810616 64.77993099 124.02104017 56.88997009 124 49 C115.22906004 67.98692441 106.46227735 86.9757636 97.72653198 105.97891235 C96.99830981 107.56296454 96.26989916 109.14693009 95.54129028 110.73080444 C91.98264464 118.46753132 88.43097755 126.20552279 85 134 C81.7 134 78.4 134 75 134 C69.58366685 123.33548201 64.43528927 112.5821759 59.5 101.6875 C58.81932091 100.19085809 58.13832424 98.69436059 57.45703125 97.19799805 C56.03655983 94.0775299 54.61745323 90.95644634 53.19921875 87.83496094 C49.83789363 80.44057253 46.45698858 73.05512769 43.07788086 65.66885376 C41.36370257 61.92149113 39.65062868 58.17362379 37.9375 54.42578125 C37.36328673 53.16967523 36.78906859 51.91357143 36.21484375 50.6574707 C35.81394531 49.78050537 35.41304687 48.90354004 35 48 C34.95347538 56.05872864 34.91802922 64.1174003 34.89637566 72.17623043 C34.88597834 75.9190492 34.87189405 79.66177547 34.84912109 83.40454102 C34.82724704 87.02258261 34.81540097 90.64053572 34.81024551 94.25863838 C34.80657571 95.63280185 34.79941015 97.00696097 34.78853989 98.38108635 C34.73195891 105.8361468 34.69768007 112.85726045 37 120 C40.16245541 121.0541518 42.86948218 121.31275672 46.1875 121.5625 C48.105625 121.706875 50.02375 121.85125 52 122 C52 125.96 52 129.92 52 134 C34.84 134 17.68 134 0 134 C0 130.04 0 126.08 0 122 C3.02734375 121.77213542 6.0546875 121.54427083 9.08203125 121.31640625 C12.05989905 121.09787539 12.05989905 121.09787539 15 120 C16.13256886 117.73486229 16.1302199 116.49765196 16.14044189 113.98329163 C16.14615204 113.14346237 16.15186218 112.30363312 16.15774536 111.43835449 C16.15886322 110.51518433 16.15998108 109.59201416 16.16113281 108.64086914 C16.16609772 107.67003891 16.17106262 106.69920868 16.17617798 105.69895935 C16.1908197 102.47768453 16.19760439 99.25645892 16.203125 96.03515625 C16.20887409 93.80317686 16.21463185 91.57119749 16.22039795 89.33921814 C16.23091318 84.65591196 16.23675266 79.97262297 16.24023438 75.28930664 C16.24572505 69.27874304 16.26976324 63.2684053 16.29820633 57.25791264 C16.31679804 52.64692005 16.32203642 48.03598228 16.32357025 43.42495537 C16.32660435 41.2085083 16.33465819 38.99206237 16.34775543 36.77565193 C16.364746 33.67976635 16.36295293 30.58443823 16.35644531 27.48852539 C16.3656601 26.56737946 16.37487488 25.64623352 16.3843689 24.69717407 C16.37601517 23.43320045 16.37601517 23.43320045 16.36749268 22.14369202 C16.36969252 21.04558496 16.36969252 21.04558496 16.3719368 19.92529392 C15.89193196 17.44059649 14.93747777 16.57646041 13 15 C10.43106162 13.71553081 8.23423663 13.67022856 5.375 13.4375 C3.60125 13.293125 1.8275 13.14875 0 13 C0 8.71 0 4.42 0 0 Z " fill="#FFFFFF" transform="translate(1578,1342)"/>
<path d="M0 0 C38.69561748 -2.9476532 38.69561748 -2.9476532 46.5234375 3.3984375 C49.63430657 6.85725626 51.88105746 10.71207909 53.91748047 14.88085938 C55.41013778 17.80288586 57.39916397 20.10946506 59.5625 22.5625 C65.96259334 30.3940375 72.33207184 38.25054386 78.70703125 46.10253906 C79.83381967 47.49030204 80.96069052 48.87799808 82.08764648 50.265625 C83.19152215 51.6248398 84.29520213 52.98421356 85.39868164 54.34375 C88.47983302 58.13766659 91.57799778 61.91675038 94.6875 65.6875 C97.95963333 69.6785111 101.1318142 73.73547971 104.26953125 77.83203125 C104.72702759 78.42810181 105.18452393 79.02417236 105.65588379 79.63830566 C106.7712457 81.09170019 107.88571617 82.54577876 109 84 C109.06947174 75.3161375 109.1227967 66.63237046 109.15543652 57.94829082 C109.17110102 53.91602967 109.1923533 49.88395847 109.22631836 45.85180664 C109.25888429 41.9614608 109.27684711 38.0712978 109.28463173 34.18082619 C109.29018026 32.69562717 109.30101511 31.2104383 109.31719017 29.725317 C109.33892851 27.64697928 109.34196856 25.56939968 109.34057617 23.4909668 C109.34723801 22.30738083 109.35389984 21.12379486 109.36076355 19.90434265 C109.23451549 17.01865212 109.23451549 17.01865212 107.67475891 15.126297 C105.02306064 13.34299566 102.45932857 13.46828359 99.3125 13.3125 C97.229375 13.209375 95.14625 13.10625 93 13 C93 8.71 93 4.42 93 0 C110.16 0 127.32 0 145 0 C145 4.29 145 8.58 145 13 C140.06835938 13.29296875 140.06835938 13.29296875 135.13671875 13.5859375 C131.84300113 13.78613747 131.84300113 13.78613747 129 16 C127.61766591 21.98544566 127.82850126 28.14287863 127.79467773 34.25952148 C127.78477814 35.37245071 127.77487854 36.48537994 127.76467896 37.6320343 C127.73319905 41.29503279 127.70836006 44.95804423 127.68359375 48.62109375 C127.66301256 51.16700062 127.64201578 53.71290416 127.62062073 56.25880432 C127.57114627 62.26509786 127.52585 68.27140873 127.48259836 74.27774912 C127.43309691 81.11940784 127.37822694 87.96102026 127.32291877 94.80263412 C127.20932974 108.86837948 127.10244109 122.93416935 127 137 C125.3962677 137.06367589 123.79180696 137.10918813 122.18725586 137.14697266 C121.29389023 137.17425446 120.4005246 137.20153625 119.48008728 137.22964478 C117 137 117 137 114.00390625 134.6484375 C113.15879818 133.58135484 112.34598885 132.48811198 111.5625 131.375 C111.11132812 130.79105469 110.66015625 130.20710938 110.1953125 129.60546875 C109.24755626 128.37417325 108.31293195 127.132668 107.39111328 125.88183594 C105.60104586 123.46031265 103.73896524 121.10027088 101.87207031 118.73779297 C100.95468503 117.57588043 100.04128613 116.4108097 99.13183594 115.24267578 C95.51188438 110.59711428 91.74269907 106.09558861 87.91845703 101.61767578 C84.51458837 97.62714394 81.21626538 93.56592315 77.95703125 89.45703125 C74.35295349 84.93215119 70.6692291 80.47206897 67 76 C64.75305578 73.25460021 62.50695837 70.50851277 60.26171875 67.76171875 C58.72604021 65.88654651 57.18685232 64.01424386 55.64453125 62.14453125 C54.87496094 61.20996094 54.10539062 60.27539062 53.3125 59.3125 C52.62800781 58.48363281 51.94351563 57.65476562 51.23828125 56.80078125 C49.40148498 54.50238173 47.62161035 52.18068881 45.86010742 49.82495117 C45.32342941 49.10772385 44.7867514 48.39049652 44.23381042 47.65153503 C43.82665298 47.10652847 43.41949554 46.56152191 43 46 C42.97684531 55.20543405 42.95906892 64.41085809 42.94818783 73.61631489 C42.94296586 77.89062337 42.93588062 82.16491195 42.92456055 86.43920898 C42.91370735 90.56295658 42.90771798 94.68668501 42.90512276 98.81044579 C42.90327291 100.38493336 42.8996607 101.95941987 42.89426994 103.53389931 C42.88702726 105.73657129 42.88601043 107.93916376 42.88647461 110.1418457 C42.884254 111.39649124 42.88203339 112.65113678 42.87974548 113.94380188 C42.85952162 117.04303747 42.85952162 117.04303747 44 120 C47.16245541 121.0541518 49.86948218 121.31275672 53.1875 121.5625 C55.105625 121.706875 57.02375 121.85125 59 122 C59 125.96 59 129.92 59 134 C41.84 134 24.68 134 7 134 C7 130.04 7 126.08 7 122 C10.02734375 121.77213542 13.0546875 121.54427083 16.08203125 121.31640625 C19.05989905 121.09787539 19.05989905 121.09787539 22 120 C23.89330535 114.31044067 24.31356555 108.99182349 24.35400391 103.03295898 C24.3737175 101.74597107 24.3737175 101.74597107 24.39382935 100.4329834 C24.43294826 97.62068239 24.45653124 94.80859225 24.4765625 91.99609375 C24.48471355 91.03026934 24.49286461 90.06444492 24.50126266 89.0693531 C24.54281973 83.96494553 24.57150253 78.86064311 24.59033203 73.75610352 C24.61252695 68.49427853 24.68144348 63.23412982 24.76067543 57.97289944 C24.8129893 53.91417838 24.82971279 49.85585967 24.83689499 45.79683113 C24.84661932 43.85711296 24.86982755 41.91741233 24.90697098 39.97802544 C25.48500101 29.68897504 25.48500101 29.68897504 22.25401306 20.26696777 C20.23398263 18.45524619 18.42820475 17.19009219 16 16 C15.12988281 15.53851562 14.25976562 15.07703125 13.36328125 14.6015625 C10.6232194 13.90409221 8.00737695 13.57884653 5.1875 13.375 C3.475625 13.25125 1.76375 13.1275 0 13 C0 8.71 0 4.42 0 0 Z " fill="#FFFFFF" transform="translate(2118,1342)"/>
<path d="M0 0 C14.19241636 11.88617661 22.42581984 27.99166347 24.50415039 46.41699219 C26.18206802 65.41969471 22.67463362 85.75358918 10.3203125 100.89453125 C-1.03201209 113.99615133 -15.69395894 124.40513346 -33.43261719 125.77392578 C-52.10410858 126.76618218 -68.85212009 123.88327107 -83.34765625 111.21875 C-98.74400902 96.6019594 -106.78475313 79.44382707 -107.38378906 58.09741211 C-107.62103813 37.25683869 -101.30944719 19.5212503 -86.96484375 4.3359375 C-63.28861923 -18.71517218 -25.87750088 -20.10156437 0 0 Z M-63.91015625 11.08984375 C-76.56412196 25.57411522 -77.89814512 45.14059566 -77.09765625 63.59375 C-75.91100252 78.17907622 -72.26609257 93.26309224 -61.16015625 103.53125 C-54.4426426 108.91793547 -47.62232651 110.75099029 -39.09765625 110.59375 C-28.6148248 109.3352747 -21.3914282 104.91964986 -14.78515625 96.78125 C-6.61136099 85.03000419 -5.75029169 71.73379044 -5.78515625 57.84375 C-5.76904297 56.5753125 -5.75292969 55.306875 -5.73632812 54 C-5.72821564 38.09953222 -8.5675989 21.25063638 -20 9.43359375 C-32.73481738 -1.73605054 -52.15611258 -0.64536331 -63.91015625 11.08984375 Z " fill="#FFFFFF" transform="translate(2383.09765625,1353.40625)"/>
<path d="M0 0 C0.91652344 0.01160156 1.83304688 0.02320313 2.77734375 0.03515625 C3.69644531 0.04417969 4.61554688 0.05320312 5.5625 0.0625 C6.27277344 0.07410156 6.98304687 0.08570313 7.71484375 0.09765625 C14.73680852 16.34566749 21.6375706 32.64196608 28.46484375 48.97265625 C29.23318828 50.80902048 30.00158042 52.6453648 30.77001953 54.48168945 C34.22374508 62.73713663 37.67341416 70.99420689 41.10809326 79.25759888 C42.54792938 82.71862886 43.99252886 86.17765786 45.43811035 89.6362915 C46.11210146 91.25203513 46.78396591 92.86866784 47.45349121 94.48626709 C52.75859186 110.5182429 52.75859186 110.5182429 63.15234375 122.22265625 C66.67510095 123.08789486 70.10609876 123.72941696 73.71484375 124.09765625 C73.71484375 128.05765625 73.71484375 132.01765625 73.71484375 136.09765625 C54.57484375 136.09765625 35.43484375 136.09765625 15.71484375 136.09765625 C15.71484375 132.13765625 15.71484375 128.17765625 15.71484375 124.09765625 C21.15984375 123.10765625 21.15984375 123.10765625 26.71484375 122.09765625 C26.21212536 115.85261929 24.6802951 110.92931871 22.15234375 105.22265625 C18.71484375 97.31169735 18.71484375 97.31169735 18.71484375 95.09765625 C4.52484375 95.09765625 -9.66515625 95.09765625 -24.28515625 95.09765625 C-25.27515625 98.06765625 -26.26515625 101.03765625 -27.28515625 104.09765625 C-28.86029464 107.74672686 -30.50878818 111.35308821 -32.17578125 114.9609375 C-33.64877776 118.20755212 -33.64877776 118.20755212 -32.28515625 122.09765625 C-27.99515625 122.75765625 -23.70515625 123.41765625 -19.28515625 124.09765625 C-19.28515625 128.05765625 -19.28515625 132.01765625 -19.28515625 136.09765625 C-35.45515625 136.09765625 -51.62515625 136.09765625 -68.28515625 136.09765625 C-68.28515625 132.13765625 -68.28515625 128.17765625 -68.28515625 124.09765625 C-65.59359375 123.88109375 -65.59359375 123.88109375 -62.84765625 123.66015625 C-58.47812307 122.53400101 -56.72286043 121.70371925 -54.0534668 118.00756836 C-53.36057501 116.68401575 -52.6933783 115.34681996 -52.046875 114 C-51.67258362 113.25649292 -51.29829224 112.51298584 -50.91265869 111.74694824 C-45.64795286 101.08124753 -41.13078754 90.06223837 -36.53515625 79.09765625 C-35.53979287 76.73961303 -34.54352137 74.38195296 -33.54638672 72.0246582 C-31.49080576 67.16421341 -29.43825019 62.3025086 -27.38769531 57.43994141 C-22.89413124 46.79446994 -18.3549773 36.16853366 -13.80603027 25.54663086 C-12.42585672 22.32184056 -11.04921569 19.0955583 -9.67285156 15.86914062 C-8.83807234 13.917891 -8.00312137 11.96671484 -7.16796875 10.015625 C-6.78679901 9.1203862 -6.40562927 8.2251474 -6.01290894 7.30278015 C-5.66591949 6.49412003 -5.31893005 5.6854599 -4.96142578 4.85229492 C-4.50922165 3.79421883 -4.50922165 3.79421883 -4.04788208 2.71476746 C-2.90418723 0.28993577 -2.77844877 0.11873713 0 0 Z M-3.28515625 45.09765625 C-5.28124959 49.77808561 -7.27501809 54.45949555 -9.26660156 59.1418457 C-9.94499297 60.73587038 -10.62402831 62.32962117 -11.30371094 63.9230957 C-12.27837277 66.20843616 -13.25074386 68.49473916 -14.22265625 70.78125 C-14.52888916 71.49792343 -14.83512207 72.21459686 -15.15063477 72.95298767 C-16.63747882 75.92593762 -16.63747882 75.92593762 -17.28515625 79.09765625 C-7.71515625 79.09765625 1.85484375 79.09765625 11.71484375 79.09765625 C8.56712377 70.5757802 5.36980456 62.08285915 1.96484375 53.66015625 C1.67150146 52.92095947 1.37815918 52.1817627 1.07592773 51.42016602 C-0.2688053 47.5605024 -0.2688053 47.5605024 -3.28515625 45.09765625 Z " fill="#FFFFFF" transform="translate(2028.28515625,1339.90234375)"/>
<path d="M0 0 C21.78 0 43.56 0 66 0 C66 4.29 66 8.58 66 13 C63.97875 13.103125 61.9575 13.20625 59.875 13.3125 C53.0116863 13.83633168 53.0116863 13.83633168 47 17 C46.08252303 19.69082341 45.87458553 22.17001538 45.87301636 24.99819946 C45.87019653 25.78332413 45.86737671 26.56844879 45.86447144 27.37736511 C45.86649567 28.2294606 45.8685199 29.08155609 45.87060547 29.95947266 C45.86885315 30.86392624 45.86710083 31.76837982 45.86529541 32.70024109 C45.86089593 35.6882011 45.86380772 38.67610189 45.8671875 41.6640625 C45.86651403 43.7386374 45.86554365 45.81321223 45.86428833 47.88778687 C45.86281404 52.23379264 45.86495776 56.57977786 45.86962891 60.92578125 C45.87533313 66.50583846 45.8720411 72.08584764 45.86605644 77.66590309 C45.86244966 81.94829676 45.86358983 86.23067896 45.86618423 90.51307297 C45.86685281 92.57124207 45.86602749 94.62941221 45.86370468 96.68758011 C45.86117549 99.5581871 45.86502223 102.42871531 45.87060547 105.29931641 C45.86858124 106.15546036 45.86655701 107.01160431 45.86447144 107.89369202 C45.76560337 112.08034816 45.76560337 112.08034816 47 116 C60.60097446 118.42874544 80.93349919 119.65713116 93 112 C99.74863564 106.69406557 102.67412798 97.6455697 106 90 C111.94 90.99 111.94 90.99 118 92 C115.14450597 106.27747015 110.34294945 120.10256175 106 134 C71.02 134 36.04 134 0 134 C0 130.04 0 126.08 0 122 C0.89203125 121.93941406 1.7840625 121.87882812 2.703125 121.81640625 C3.87359375 121.73261719 5.0440625 121.64882812 6.25 121.5625 C7.41015625 121.48128906 8.5703125 121.40007812 9.765625 121.31640625 C12.32567884 121.0659662 14.53465371 120.6585193 17 120 C17.06942265 106.62231334 17.12277194 93.24466932 17.15543652 79.86683941 C17.17111159 73.65538369 17.1923836 67.44405095 17.22631836 61.23266602 C17.2588459 55.24155781 17.27683913 49.25056811 17.28463173 43.25937843 C17.29018711 40.97035671 17.30103499 38.68134168 17.31719017 36.39237022 C17.3388764 33.19332084 17.34197059 29.99476501 17.34057617 26.7956543 C17.351362 25.84331406 17.36214783 24.89097382 17.3732605 23.90977478 C17.36913651 23.03899292 17.36501251 22.16821106 17.36076355 21.27104187 C17.36491162 20.13585381 17.36491162 20.13585381 17.36914349 18.97773266 C16.89175766 16.42007806 16.06423582 15.5477676 14 14 C10.5776116 13.41781668 10.5776116 13.41781668 6.8125 13.3125 C5.54019531 13.24675781 4.26789063 13.18101563 2.95703125 13.11328125 C1.49330078 13.05720703 1.49330078 13.05720703 0 13 C0 8.71 0 4.42 0 0 Z " fill="#FFFFFF" transform="translate(1834,1342)"/>
<path d="M0 0 C20.46 0 40.92 0 62 0 C62 4.29 62 8.58 62 13 C58.71223958 13.16276042 55.42447917 13.32552083 52.13671875 13.48828125 C48.73242668 14.04365144 48.05355723 14.37855989 46 17 C43.53556806 25.84073241 44.85525335 36.69166238 44.8671875 45.81640625 C44.86651261 47.64143385 44.86554105 49.46646136 44.86428833 51.29148865 C44.86282044 55.10147972 44.86493684 58.91144723 44.86962891 62.72143555 C44.8753297 67.58543299 44.87203917 72.44937528 44.86605644 77.3133707 C44.86242972 81.07704579 44.86359903 84.84070797 44.86618423 88.60438347 C44.86684745 90.39719588 44.86604642 92.1900095 44.86370468 93.98282051 C44.86114287 96.49451902 44.86506785 99.0061302 44.87060547 101.51782227 C44.86858124 102.24586563 44.86655701 102.973909 44.86447144 103.72401428 C44.8853099 108.86962582 45.34575359 113.89754741 46 119 C49.66447432 120.64800856 52.81203466 121.33580973 56.8125 121.625 C59.3803125 121.810625 59.3803125 121.810625 62 122 C62 125.96 62 129.92 62 134 C41.54 134 21.08 134 0 134 C0 130.04 0 126.08 0 122 C2.99479167 121.8046875 5.98958333 121.609375 8.984375 121.4140625 C11.88211292 121.01618657 13.67832909 120.76837551 16 119 C17.36527931 114.39161815 17.14779296 109.64429045 17.14526367 104.8828125 C17.14862228 103.9732782 17.1519809 103.0637439 17.15544128 102.12664795 C17.16492493 99.12608467 17.16689291 96.12557732 17.16796875 93.125 C17.17118246 91.03662086 17.17454662 88.94824195 17.17805481 86.85986328 C17.18403913 82.48534625 17.18589536 78.11084896 17.18530273 73.73632812 C17.185201 68.13077675 17.198868 62.52535172 17.21607494 56.91983032 C17.22719056 52.60814838 17.2292221 48.29649706 17.22869301 43.98480225 C17.22987321 41.91794396 17.23429726 39.85108489 17.24202538 37.78424072 C17.25181893 34.89513263 17.24894997 32.00629999 17.24291992 29.1171875 C17.24853943 28.26404968 17.25415894 27.41091187 17.25994873 26.53192139 C17.23758446 22.31670004 17.19896671 18.73774825 15 15 C11.83754459 13.9458482 9.13051782 13.68724328 5.8125 13.4375 C3.894375 13.293125 1.97625 13.14875 0 13 C0 8.71 0 4.42 0 0 Z " fill="#FFFFFF" transform="translate(1760,1342)"/>
</svg>
